<?xml version="1.0" standalone="no"?><!DOCTYPE svg PUBLIC "-//W3C//DTD SVG 1.1//EN" "http://www.w3.org/Graphics/SVG/1.1/DTD/svg11.dtd"><svg t="1555666346515" class="icon" style="" viewBox="0 0 1024 1024" version="1.1" xmlns="http://www.w3.org/2000/svg" p-id="4465" xmlns:xlink="http://www.w3.org/1999/xlink" width="200" height="200"><defs><style type="text/css"></style></defs><path d="M511.87358 6.788741C232.915753 6.788741 6.788741 232.915753 6.788741 511.848296S232.928395 1016.907852 511.87358 1016.907852c278.945185 0 505.059556-226.127012 505.059556-505.059556S790.806123 6.788741 511.87358 6.788741z m281.031111 365.985185L460.357531 705.295802a38.317827 38.317827 0 0 1-27.180247 11.251358 38.317827 38.317827 0 0 1-27.180247-11.251358L230.842469 530.115951a38.431605 38.431605 0 1 1 54.360494-54.360494L433.189926 623.755062l305.34163-305.34163a38.431605 38.431605 0 1 1 54.360493 54.360494z" fill="#7ED321" p-id="4466"></path></svg>