<?xml version="1.0" standalone="no"?><!DOCTYPE svg PUBLIC "-//W3C//DTD SVG 1.1//EN" "http://www.w3.org/Graphics/SVG/1.1/DTD/svg11.dtd"><svg t="1557366309742" class="icon" style="" viewBox="0 0 1024 1024" version="1.1" xmlns="http://www.w3.org/2000/svg" p-id="4588" xmlns:xlink="http://www.w3.org/1999/xlink" width="200" height="200"><defs><style type="text/css"></style></defs><path d="M512 1024C229.229714 1024 0 794.770286 0 512S229.229714 0 512 0 1024 229.229714 1024 512 794.770286 1024 512 1024z" fill="#333333" fill-opacity=".4" p-id="4589"></path><path d="M421.43939 689.542095a20.909105 20.909105 0 0 1-20.772571 0.224305A20.548267 20.548267 0 0 1 390.095238 672.046324V342.79619a20.538514 20.538514 0 0 1 10.630095-18.344228 20.909105 20.909105 0 0 1 21.33821 0.643657c12.668343 7.20701 267.361524 151.873829 288.943543 164.230095A20.245943 20.245943 0 0 1 721.67619 507.114057c0 7.41181-4.096 14.248229-10.669104 17.798095-15.5648 9.264762-271.096686 154.545981-289.567696 164.620191z" fill="#FFFFFF" p-id="4590"></path></svg>