<?xml version="1.0" standalone="no"?><!DOCTYPE svg PUBLIC "-//W3C//DTD SVG 1.1//EN" "http://www.w3.org/Graphics/SVG/1.1/DTD/svg11.dtd"><svg t="1554523288861" class="icon" style="" viewBox="0 0 1024 1024" version="1.1" xmlns="http://www.w3.org/2000/svg" p-id="4433" xmlns:xlink="http://www.w3.org/1999/xlink" width="200" height="200"><defs><style type="text/css"></style></defs><path d="M779.946667 487.8336c-2.184533-3.822933-3.754667-7.918933-7.168-11.264-0.682667-0.6144-1.297067-1.024-1.8432-1.6384-0.887467-0.682667-1.160533-1.911467-1.911467-2.594133L359.901867 77.824a55.569067 55.569067 0 0 0-79.189334 1.501867 56.1152 56.1152 0 0 0 1.365334 79.325866l369.186133 355.669334L280.576 864.938667a56.1152 56.1152 0 1 0 77.141333 81.5104l413.013334-390.5536a55.569067 55.569067 0 0 0 11.195733-64.7168c-0.4096-1.160533-1.4336-2.184533-2.048-3.413334z" fill="#F10215" p-id="4434"></path></svg>